<?xml version="1.0" encoding="utf-8"?>
<!-- Generator: Adobe Illustrator 19.1.0, SVG Export Plug-In . SVG Version: 6.00 Build 0)  -->
<!DOCTYPE svg PUBLIC "-//W3C//DTD SVG 1.1//EN" "http://www.w3.org/Graphics/SVG/1.1/DTD/svg11.dtd">
<svg version="1.1" id="Ebene_1" xmlns="http://www.w3.org/2000/svg" xmlns:xlink="http://www.w3.org/1999/xlink" x="0px" y="0px"
	 viewBox="-293.2 267.3 300 316" enable-background="new -293.2 267.3 300 316" xml:space="preserve">
<g>
	<path fill="#FFFFFF" d="M-49.5,378.5c-4,2.2-8.2,4.4-12.4,6.8c0.8-1.2,1.6-2.4,2.4-3.6c2.6-3.6,5.2-7.2,8-10.8s5.6-7.2,8.6-10.6
		c3-3.4,6-6.8,9.2-10c3.2-3.4,6.6-6.4,10-9.2c1.8-1.4,3.6-2.8,5.2-4c1.8-1.4,3.6-2.4,5.4-3.6c6-3.4,17.3-5,10.8,5.4l-1.8,2.4
		c-1.2,1.6-2.6,3.2-3.8,4.6l-4.2,4.4c-1.4,1.4-3,2.8-4.4,4c-3,2.6-5.8,5-8.8,7.4c-3,2.2-5.8,4.4-8.6,6.4
		C-38.2,371.5-43,374.5-49.5,378.5 M-65.7,390.9c6-3,12-6,18.1-9.2c5-2.8,10.6-6,16.5-10c5.8-3.8,12.2-8.2,18.5-13.5
		c3.2-2.6,6.2-5.4,9.2-8.6c1.6-1.6,3-3.2,4.4-5c1.4-1.8,2.8-3.6,4-5.8c0.6-1,1-2.2,1.4-3.6c0.2-0.6,0.4-1.4,0.4-2.2
		c0-8.6-10.6-10-15.9-8.4c-2.4,0.6-4.8,1.8-7,2.8c-12.6,6.4-22.7,17.5-32.1,28.3l-4.6,5.4c-1.6,1.8-3,3.6-4.4,5.4
		c-1.4,1.8-2.8,3.6-4.2,5.6l-4,5.6l-3.6,5.6c-1.2,1.8-2.4,3.8-3.6,5.6l-3.4,5.8l-1.6,3l-1.4,3l-1.4,3l-1.2,3.2
		c-1.2,4.6-2.4,10.8,3.4,12.8c3,0.8,6.6-0.8,9.4-1.8c6.2-2.4,12-5.4,19.1-9.2c9.8-5.2,17.5-9.8,28.5-15.9c2.8-1.4,2-4.4,0-3.6
		c-10.2,4.6-19.5,10.6-30.3,15.5c-6.2,2.8-12.4,5.4-19.3,7.8c-1,0.2-5.4,2.2-5.4,0.2l0.2-1.2l0.8-2.6c0.6-1.8,1.4-3.6,2.2-5.4
		c1.8-3.6,3.6-7.2,6-11L-65.7,390.9z M-128.4,390.3l0.6-0.8h0.2l1.8-1l1-0.4l1-0.6l1-0.6l0.4-0.2l0.4-0.4c0.2,0,0.4-0.2,0.4-0.4
		c0.2,0,0.4-0.2,0.6-0.4l0.4-0.8c0.2-0.2,0.2-0.4,0.4-0.8l0.2-1.2c0-0.4,0-0.8,0-1.4l-0.2-1.4l-0.6-1.2l-0.2-1
		c-1.6-1.4-4.2-1.2-5.6,0.4l-0.2,0.2l-1.8,2l-1.6,2l-6.2,8.4l-3.2,4.2l-1.6,2l-0.8,1.2l-1.6,2l-0.8,1.2l-0.4,1.2l-0.8,1.2l-0.8,1
		l-0.6,1l-2.8,4.4l-0.8,1.2l-0.4,0.4l-0.2,0.2v0.2l-0.4,3c0,0.2,0,0.4,0.2,0.4c0.2,0.4,0.6,0.8,1.2,1.2c0.2,0.2,0.4,0.2,0.6,0.4
		c0.2,0.2,0.4,0.2,0.6,0.2c0.4,0,0.8,0.2,1,0.2c0.4,0,0.6,0,1,0c0.2,0,0.4,0,0.6,0l0.6-0.2l1.2-0.4l2-0.8l1.8-0.8l3.6-1.6l7-3.2
		l3.6-1.8c1.2-0.6,2.4-1.2,3.6-1.8c0.6-0.2,1.2-0.6,1.8-1c0.6-0.2,1.2-0.6,1.8-1c1.8-1,3.6-2.2,5.4-3.4l-1.4,2.4l-1.4,2.4
		c-0.4,0.8-1,1.8-1.4,2.6c-0.2,0.4-0.4,1-0.6,1.6l-0.2,0.8c0,0.2,0,0.4-0.2,0.4v0.2v0.2v0.2c0,0.2-0.2,0.4-0.2,0.8
		c0,0.2,0,0.6,0,1.2v0.2v0.2v0.2v0.2l0,0c0,0.2,0.2,0.4,0.2,0.4l0.8,0.8c0.2,0.2,0.4,0.2,0.6,0.4l0.6,0.2l0.8,0.2h1l0.8-0.2l1-0.2
		l0.8-0.2c0.2-0.2,0.4-0.2,0.6-0.4c0.4-0.2,1-0.4,1.4-0.8c0.2,0,0.4-0.2,0.6-0.4l0.6-0.4l1.2-0.8l1.2-0.8c0.4-0.2,0.8-0.6,1.2-0.8
		c0.8-0.6,1.6-1,2.2-1.6l2.2-1.6l2.4-1.4l4.6-2.8c10.8-6,10.4-6.4,23.9-12.6c0.8-0.4,1.8-1.4,1.8-2.4c0-0.8-1-1.6-1.8-1.2
		c-14.1,6.6-13.7,6.8-25.5,13.3c-1.6,1-3.2,1.8-4.8,2.8l-1.2,0.6l-1.2,0.6l-2.4,1.4c-1.6,0.8-3.2,1.6-4.8,2.4l-0.6,0.2l-0.6,0.2
		l-0.6,0.2l0,0l0.2-0.4l0.6-1l0.6-1.2l0.8-1.2c0.8-1.4,1.8-2.8,2.8-4.4l3.2-4.4l1.6-2l1.6-2.2l3.2-4.2l1.8-2.2l1.4-1.8
		c0,0,0-0.2,0.2-0.2l0.2-0.4l0.2-0.2c1.2-1.8,0.6-4.2-1.2-5.4s-4.2-0.6-5.4,1.2l-1,1.4l-1.2,2.4c-0.8,1-1.6,1.8-2.4,2.8l-2.6,2.6
		l-2.8,2.6l-2.8,2.6l-1.4,1.4c-0.4,0.4-1,0.8-1.4,1.2l-1.4,1.2l-1.6,1.2l-2.8,2.2c-0.6,0.4-1,0.8-1.6,1c-0.6,0.4-1,0.8-1.6,1l-3.2,2
		l-3.4,1.8l-1.8,0.8l-1.8,0.8c-1.2,0.6-2.2,1-3.4,1.6c-1.2,0.4-2.4,0.8-3.6,1.2l-1.8,0.4l-0.8,0.2l0.8-1.4l1.4-2.2l0.6-1.2l0.8-1
		l0.6-1l0.8-1.2l3-4.2c0.4-0.8,1-1.4,1.6-2l0.8-1c0.2-0.4,0.6-0.6,0.8-1l1.6-2c0.6-0.6,1.2-1.4,1.6-2L-128.4,390.3z M-165.3,383.3
		v-0.2c0,0-0.2-0.2-0.2-0.4c0.4-0.4,0.8-0.8,1.2-1.2c0.4-0.2,0.8-0.4,1.2-0.6c0,0.2,0,0.4,0,0.6l-1.4,1.2L-165.3,383.3z
		 M-170.7,391.1c0.8-0.4,1.8-1,3-1.6c0.2,0,0.6-0.2,0.8-0.4l0.2,0.2c0.8,1,1.4,1.8,2,2.6c-0.8,2.2-1.8,4.8-3.2,7
		c-0.6,1.2-1.4,2.4-2.2,3.4l-0.6,0.8l-0.6,0.8c-0.4,0.4-0.8,1-1.2,1.6c-1,1-1.8,1.8-3,2.6c-1,0.8-2,1.4-3.2,2s-2.4,1-3.6,1.4l0,0
		l0.8-1.8l1-1.8l0.8-1.6c0.4-0.6,0.6-1.2,1-1.8l3.6-6.6l3.6-6.2L-170.7,391.1z M-135,390.1c-8.8,4-17.3,5-24.1,1l0.4-1.6l0.6-2v-0.2
		v-0.2v-0.2v-0.2c0-0.4,0-0.8,0-1.2v-2.2l-0.2-1.2c0,0,0,0,0-0.2c0.2-0.4,0.2-0.8,0.2-1.4c0-0.2,0-0.4,0-0.6l-0.2-0.6
		c-0.2-0.4-0.4-0.8-0.6-1l-0.8-0.8c0,0,0,0-0.2,0l-0.2-0.4c-0.4-0.6-1-1.2-1.6-1.8c-0.2-0.2-0.6-0.4-1-0.6l-0.4-0.2l-0.6-0.2
		c-0.4,0-1-0.2-1.4,0c-0.4,0-1,0.2-1.2,0.4c-0.8,0.4-1.4,1-1.8,1.4c-0.4,0.6-0.8,1.2-1.2,1.8c-0.4,0.6-0.6,1.2-0.8,1.8
		c-0.2,0.2-0.2,0.6-0.4,1c0,0.4,0,0.6,0,1v0.2l-0.4,0.4c0,0.2-0.2,0.4-0.4,0.8l-0.4,0.6c-1.4,1.8-2.6,3.8-3.8,5.8
		c-0.2,0.4-0.4,0.8-0.8,1.2c-0.2,0.2-0.4,0.6-0.6,0.8c-0.8,1.4-1.8,2.8-2.8,4.2l-4.4,6.4l-1,1.6l-1.2,1.8c-0.8,1-1.6,2.2-2.2,3.4
		l-1.2,1.8l-0.4,1c-0.2,0.2-0.4,0.6-0.4,1.2l-0.2,0.8c0,0.2,0,0.4,0,0.6v0.8c0,0.2,0,0.4,0,0.6s0,0.4,0,0.4l0.2,0.6
		c0.2,0.2,0.2,0.4,0.2,0.2c0,0,0,0.2,0.2,0.2c0,0.2,0.2,0.2,0.4,0.4c0.4,0.4,0.8,0.8,1.2,1l1.2,0.4c0.2,0,0.6,0,0.8,0
		c0.6,0,1,0,1.6,0l1.4-0.2c0.4,0,0.8-0.2,1.2-0.4c0.8-0.2,1.6-0.6,2.2-1c1.4-0.8,2.8-1.6,3.8-2.4c0.6-0.4,1.2-1,1.8-1.6l0.8-0.8
		c0.2-0.2,0.4-0.4,0.8-0.8c1-1,2-2.2,3-3.4l1.4-1.8l0.6-0.8l0.6-0.8c0.8-1.2,1.6-2.4,2.4-3.6c1.4-2,2.8-4.2,4-6.4
		c3.2,1.4,6.4,1.8,10.6,1.8c5.4,0,11.2-1,16.7-3.4c1.6-0.6,1.8-1.4,1.4-2.8C-132.6,389.3-133.2,389.3-135,390.1 M-87.2,269.5
		C-87.2,269.5-87.2,269.7-87.2,269.5L-87.2,269.5L-87.2,269.5z M-287.4,359.8v-0.2c-0.8-1.6-2.8-2-4.2-1.4c-1.6,0.8-2,2.8-1.4,4.2
		l0,0l0,0l0,0c0,0,0,0,0,0.2c0,0,0,0,0,0.2c0,0,0,0,0,0.2l0,0l0.6,0.6c0.2,0.2,0.4,0.6,0.8,0.8c0.6,0.6,1.4,1.2,2.4,1.8l1.6,0.6
		c0.6,0.2,1.2,0.2,1.8,0.4c1.2,0.2,2.4,0.2,3.8,0.2s2.8-0.2,4.4-0.4c3-0.4,6.4-1.2,10.2-2c7.4-2,16.3-5,26.3-8.8l15.7-6.2l17.3-7.2
		l18.5-8.2c6.4-2.8,13-5.8,19.7-9c6.8-3.2,13.7-6.4,20.7-9.8l10.6-5l4.8-2.2l-6.6,7.4c-5.8,6.4-11.4,12.8-17.1,19.5
		c-5.6,6.4-11,12.8-16.5,19.3c-5.4,6.4-10.8,12.4-16.1,18.7c-5.4,6-10.6,12-15.9,17.9c-2.6,3-5.2,5.8-7.8,8.6l-7.6,8.2
		c-2.4,2.8-5,5.4-7.6,7.8c-1.2,1.4-2.6,2.6-3.8,3.6c-1.2,1.2-2.6,2.4-3.8,3.6l-4,2.8c-1.2,1-2.6,2-3.8,2.8l-1.8,1.2l-1.8,0.8
		c-0.2,0.2-0.6,0.2-0.8,0.2c-0.2,0-0.4,0-0.6,0h-0.2l0,0c0,0,0,0-0.2,0l-0.2-0.4l-0.4-0.8c0,0,0-0.2-0.2-0.4c0-0.2,0-0.4,0-0.4
		c-0.2-0.6-0.4-1.4-0.6-2c0,0,0-0.2,0-0.4c0-0.2,0-0.4,0-0.6v-1.2c0-0.6,0-1.4,0-2.2l0.2-1c0-0.4,0.2-0.8,0.2-1.2
		c0.2-1.4,0.6-2.8,1-4.2c0.4-1.8,1-3.4,1.6-5l0.8-0.8c0.8-0.8,1.8-1.8,3.2-3.4s3-3.4,4.8-5.8l2.8-3.8c1-1.4,2-2.8,3.2-4.4
		c0.4-0.8,1-1.6,1.6-2.6l0.8-1.4c0.2-0.2,0.2-0.6,0.4-0.8c0-0.2,0.2-0.6,0.4-0.8l0.2-0.6v-0.2l0.2-0.4c0-0.2,0-0.4,0-0.8v-0.6
		c0-0.4,0-0.8-0.6-1.6c-0.4-0.6-1.4-1.2-1.8-1.2c-0.6,0-1,0-1.2,0s-0.4,0-0.6,0.2c-0.2,0-0.2,0-0.4,0l-0.8,0.2l-0.2,0.2l-0.4,0.4
		c-0.2,0.2-0.6,0.4-0.8,0.6l-1.4,1.2l-1.2,1.4c-0.8,0.8-1.6,1.8-2.4,2.8l-1.2,1.4l-0.6,0.8c-0.2,0.2-0.4,0.4-0.6,0.8
		c-1.6,2.2-2.8,4.4-4,7c-1.2,2.4-2.2,5-3.2,7.8c-1,2.6-1.8,5.4-2.6,8.4c-0.4,1.4-0.8,3-1,4.4c0,0.4-0.2,0.8-0.2,1.2
		s-0.2,0.8-0.2,1.2c-0.2,0.8-0.4,1.6-0.4,2.4c-0.4,1.6-0.8,3.4-0.8,5.2c0,1,0,1.8,0.4,3c0,0.6,0.4,1.2,0.6,1.8
		c0.2,0.2,0.4,0.6,0.6,0.8l0.2,0.2c0,0,0,0.2,0.2,0.2l0,0l0.2,0.2c0.6,0.6,1.4,1,2,1.2c0.8,0.2,1.6,0.2,2.2,0.2c0.6,0,1.2,0,1.8-0.2
		c0.6,0,1.2-0.2,1.6-0.4c1-0.2,1.8-0.8,2.8-1.2l2.4-1.4c1.6-1,3-2,4.4-3.2c1.4-1,2.8-2.2,4-3.4c1.4-1.2,2.8-2.4,4-3.6l3.8-3.6
		c2.6-2.6,5.2-5.2,7.8-8c5.2-5.4,10.4-11,15.7-17.1l15.7-18.1c5.2-6,10.6-12.4,16.1-18.7c5.4-6.4,11-12.6,16.7-19.3l17.1-19.3
		c5.8-6.4,11.6-12.6,17.7-18.9c0.8-0.8,1.6-1.6,2.4-2.4l1.6-1.2l2.4-1.8l5-3.8c3.4-2.4,6.8-5,10.2-7.4c1.8-1.2,3.4-2.6,5.2-3.8l5-4
		l1.2-1.2c0.4-0.4,0.8-0.8,1.2-1.2c0.2-0.2,0.4-0.4,0.6-0.6l0.4-0.4c0-0.2,0.2-0.4,0.4-0.6l0.2-0.4l0.2-0.6c0-0.4,0.2-0.8,0-1.6
		c0-1-1.2-2-1.8-2c0-0.4-0.4-0.4-0.6-0.4c-0.2,0-0.4,0-0.6,0h-0.4c0,0-0.2,0-0.4,0c-0.4,0-0.6,0.2-1,0.4c-0.2,0-0.4,0-0.4,0.2h-0.2
		H-88h-0.4l-0.4,0.2l-0.8,0.4c-1,0.4-2,1-3,1.6c-1.8,1.2-3.6,2.4-5.4,3.8c-1.8,1.4-3.6,2.8-5.2,4.2c-3.6,3.2-6.8,6.2-10,9.2
		c-3.2,3-6.2,6-9.2,9.2l-4.8,4.8c-0.6,0.2-1.2,0.6-1.8,0.8c-7.2,3.4-14.5,7-21.5,10.4l-20.7,9.8c-6.8,3.2-13.3,6.2-19.7,9
		c-6.4,3-12.6,5.6-18.5,8.2c-6,2.6-11.8,5-17.3,7.2c-5.4,2.2-10.6,4.2-15.7,5.8c-5,1.8-9.6,3.4-14.1,4.6l-6.2,1.8l-5.6,1.4
		c-3.6,0.6-7,1-9.8,1.2c-1.4,0-2.6,0-3.8,0c-1,0-2-0.2-2.8-0.4c-0.8-0.2-1.4-0.4-1.8-0.6l-0.6-0.6c0,0,0-0.2-0.2-0.2V359.8
		L-287.4,359.8L-287.4,359.8z"/>
	<path fill="#FFFFFF" d="M-40.2,431.9h3c6.4,0,12.6,6.2,12.6,50.6c0,50.6-6.2,57-12.6,57h-3C-40.2,539.5-40.2,431.9-40.2,431.9z
		 M-52.9,535.9c0,2-0.4,3.4-1.4,4.6l-5,4.8c-0.4,0.6-1.2,1-1.2,1.4s0.4,1,1,1h21.9c16.7,0,26.7-11.2,26.7-65.2c0-43-9.8-59-26.7-59
		h-21.9c-0.6,0-1,0.4-1,1c0,0.6,0.8,1,1.2,1.4l5,4.8c1.2,1.2,1.4,2.6,1.4,4.6V535.9z M-89.4,431.9c5,0,8.6,13.9,8.6,50.6
		c0,43-3.6,57-8.6,57c-4.8,0-8.4-13.9-8.4-57C-97.8,445.8-94.2,431.9-89.4,431.9 M-89.4,423.7c-19.9,0-22.1,34.9-22.1,58.8
		c0,31.3,2.2,65.4,22.1,65.4c20.1,0,22.3-34.1,22.3-65.4C-67.1,458.6-69.3,423.7-89.4,423.7 M-142.8,431.9c5,0,8.6,13.9,8.6,50.6
		c0,43-3.6,57-8.6,57c-4.8,0-8.4-13.9-8.4-57C-151.2,445.8-147.6,431.9-142.8,431.9 M-142.8,423.7c-19.9,0-22.1,34.9-22.1,58.8
		c0,31.3,2.2,65.4,22.1,65.4c20.1,0,22.3-34.1,22.3-65.4C-120.5,458.6-122.7,423.7-142.8,423.7 M-198.2,431.9h9.4
		c2.2,0,3.6,1,4.2,3.2l9,31.1c0.2,0.6,0.8,1.2,1.4,1.2c0.4,0,0.8-0.4,0.8-0.8v-41.6c0-0.8-0.4-1.4-1.4-1.4h-43c-0.6,0-1,0.4-1,1
		s0.8,1,1.2,1.4l5,4.8c1.2,1.2,1.4,2.6,1.4,4.6v100.4c0,2-0.4,3.4-1.4,4.6l-5,4.8c-0.4,0.6-1.2,1-1.2,1.4s0.4,1,1,1h27.1
		c0.6,0,1-0.4,1-1c0-0.4-0.6-1-1.2-1.4l-6.2-4.8c-1.4-1-1.4-2.6-1.4-4.6v-46.8h3.6c0.8,0,1.4,0.4,1.8,1.2l5.8,12
		c0.4,0.6,0.4,1.2,1,1.2c0.4,0,0.6-0.4,0.6-1v-34.9c0-0.6-0.4-1-0.8-1s-0.8,0.4-1.2,1.2l-5.4,11.4c-0.4,0.8-1,1.2-1.8,1.2h-3.6
		v-48.6H-198.2z"/>
	<path fill="#FFFFFF" d="M-13.5,575.4c-0.8,0-1.2,0.8-1.2,1.8c0,0.8,0.4,1.8,1.2,1.8c1,0,1.2-0.8,1.2-1.8
		C-12.3,576.2-12.7,575.4-13.5,575.4 M-17.1,553.2c0-0.2,0-0.2-0.2-0.2h-3.4c-0.2,0-0.2,0-0.2,0.2c0,0,0,0.2,0.2,0.2l1,1l0.2,0.2
		v22.5c0,0.2,0,0.2,0,0.4l-1,1.2l-0.2,0.2c0,0.2,0.2,0.2,0.2,0.2h4.6c0.2,0,0.2,0,0.2-0.2c0,0,0-0.2-0.2-0.2l-1-1.2c0,0,0-0.2,0-0.4
		v-23.9H-17.1z M-25.4,575.4c0,1-0.6,2-1.4,2c-0.8,0-1.2-0.8-1.2-4.8c0-3.6,0.6-4.8,2.4-6.4l0,0v9.2H-25.4z M-23,564
		c0-3.6-2.2-4.4-3.4-4.4c-2,0-4,2.4-4,2.8c0,0.2,0,0.2,0.2,0.2s0.2,0,0.2-0.2c0.6-0.6,2-1.4,3-1.4c1.2,0,1.4,0.4,1.4,2
		c0,1.4,0,1.8-0.6,2.2c-3.8,3-4.4,4-4.4,8c0,4.8,1.6,5.6,3,5.6c1,0,1.8-0.6,2.4-1.4c0.4,0.6,1,1.4,2,1.4c0.8,0,1.6-1,1.8-2
		c0-0.2,0-0.2-0.2-0.2c0,0-0.2,0-0.2,0.2c-0.2,0.4-0.6,0.6-1,0.6c-0.4,0-0.4-0.4-0.4-0.8V564H-23z M-34,561.4c0-0.2,0.2-0.4,0.2-0.6
		l0.8-0.8c0.2-0.2,0.2-0.4,0-0.4h-0.8c-0.2,0-0.2-0.2-0.2-0.4v-4c0-0.2,0-0.2-0.2-0.2h-1c-0.2,0-0.2,0.2-0.2,0.4
		c0,1.4-0.2,4-1.6,4.2c-0.4,0-0.4,0.2-0.4,0.2l0.2,0.2l1,1c0.2,0.2,0.2,0.4,0.2,0.4v14.1c0,2.8,0.8,3.4,2.2,3.4s2.2-1.2,2.4-2.2
		c0-0.2,0-0.2-0.2-0.2c0,0-0.2,0-0.2,0.2c-0.2,0.4-0.6,0.8-1,0.8c-0.4,0-0.8-0.6-0.8-1.2v-14.9H-34z M-40.8,553
		c-0.8,0-1.2,0.8-1.2,1.8c0,0.8,0.6,1.8,1.2,1.8c0.6,0,1.2-1,1.2-1.8C-39.6,553.8-40.2,553-40.8,553 M-42,577.1c0,0.2,0,0.2,0,0.4
		l-1,1.2l-0.2,0.2c0,0.2,0.2,0.2,0.2,0.2h4.6c0.2,0,0.2,0,0.2-0.2c0,0,0-0.2-0.2-0.2l-1-1.2c0,0,0-0.2,0-0.4v-17.3
		c0-0.2,0-0.2-0.2-0.2H-43c-0.2,0-0.2,0-0.2,0.2c0,0,0,0.2,0.2,0.2l1,1l0.2,0.2v15.9H-42z M-50.3,578.7c0,0.2,0.2,0.2,0.2,0.2h1.2
		c0.2,0,0.4-0.2,0.4-0.4l2.8-23.1c0-0.4,0.2-0.6,0.4-0.8l1.2-1.2c0.2-0.2,0.2-0.2,0.2-0.4s-0.2-0.2-0.4-0.2h-4.6
		c-0.2,0-0.2,0-0.2,0.2c0,0.2,0.2,0.2,0.2,0.4l0.8,0.8c0.2,0.2,0.4,0.6,0.4,1l-1.4,12.2l0,0l-1.8-12.2c0-0.4,0.2-0.6,0.4-1l1-0.8
		c0.2-0.2,0.2-0.2,0.2-0.4s-0.2-0.2-0.2-0.2h-5.4c-0.2,0-0.4,0-0.4,0.2c0,0.2,0,0.2,0.2,0.4l1.2,1.2c0.2,0.2,0.4,0.6,0.4,0.8
		L-50.3,578.7z M-62.1,575.4c-0.8,0-1.2,0.8-1.2,1.8c0,0.8,0.4,1.8,1.2,1.8c1,0,1.2-0.8,1.2-1.8C-60.9,576.2-61.3,575.4-62.1,575.4
		 M-65.7,553.2c0-0.2,0-0.2-0.2-0.2h-3.4c-0.2,0-0.2,0-0.2,0.2c0,0,0,0.2,0.2,0.2l1,1l0.2,0.2v22.5c0,0.2,0,0.2,0,0.4l-1,1.2
		l-0.2,0.2c0,0.2,0.2,0.2,0.2,0.2h4.6c0.2,0,0.2,0,0.2-0.2c0,0,0-0.2-0.2-0.2l-1-1.2c0,0,0-0.2,0-0.4v-23.9H-65.7z M-73.9,575.4
		c0,1-0.6,2-1.4,2c-0.8,0-1.2-0.8-1.2-4.8c0-3.6,0.6-4.8,2.4-6.4l0,0v9.2H-73.9z M-71.5,564c0-3.6-2.2-4.4-3.4-4.4c-2,0-4,2.4-4,2.8
		c0,0.2,0,0.2,0.2,0.2c0.2,0,0.2,0,0.2-0.2c0.6-0.6,2-1.4,3-1.4c1.2,0,1.4,0.4,1.4,2c0,1.4,0,1.8-0.6,2.2c-3.8,3-4.4,4-4.4,8
		c0,4.8,1.6,5.6,3,5.6c1,0,1.8-0.6,2.4-1.4c0.4,0.6,1,1.4,2,1.4c0.8,0,1.6-1,1.8-2c0-0.2,0-0.2-0.2-0.2c0,0-0.2,0-0.2,0.2
		c-0.2,0.4-0.6,0.6-1,0.6c-0.4,0-0.4-0.4-0.4-0.8V564H-71.5z M-87.2,559.8c0-0.2,0-0.2-0.2-0.2h-3.2c-0.2,0-0.2,0-0.2,0.2
		c0,0,0,0.2,0.2,0.2l1,1l0.2,0.2v15.7c0,0.2,0,0.2,0,0.4l-1.2,1.2c-0.2,0-0.2,0.2-0.2,0.2c0,0.2,0,0.2,0.2,0.2h4.6
		c0.2,0,0.2,0,0.2-0.2c0,0,0-0.2-0.2-0.2l-1-1.2c0,0,0-0.2,0-0.4V564c0-1.8,0.8-3,1.8-3c0.8,0,1.2,0.6,1.2,2v13.9c0,0.2,0,0.2,0,0.4
		l-1,1.2l-0.2,0.2c0,0.2,0,0.2,0.2,0.2h4.6c0.2,0,0.2,0,0.2-0.2c0,0,0-0.2-0.2-0.2l-1-1.2c0,0,0-0.2,0-0.4V563
		c0-2.4-1.2-3.6-2.8-3.6c-1.2,0-1.8,0.6-2.4,1.2l0,0v-0.8H-87.2z M-96.4,577.5c-0.8,0-1.4-1.2-1.4-9c0-6,0.4-7.2,1.4-7.2
		s1.4,1.2,1.4,7.2C-95,576.2-95.4,577.5-96.4,577.5 M-96.4,559.6c-2.2,0-4,2-4,8.8c0,8.6,1.8,10.4,4,10.4c2.2,0,4.2-1.8,4.2-10.4
		C-92.2,561.6-94,559.6-96.4,559.6 M-103.1,560c0-0.2,0-0.4-0.2-0.4c-0.2,0-0.2,0.2-0.2,0.2l-1,0.8c-0.6-0.6-1.2-1.2-2-1.2
		c-1.2,0-2.6,1.4-2.6,3.8c0,2.2,0.8,4.2,2,6.4c1.2,1.8,2.2,4,2.2,6.2c0,0.8-0.4,1.4-1.2,1.4c-1.2,0-2-2.6-2.6-5.4
		c0-0.2,0-0.4-0.2-0.4s-0.2,0.2-0.2,0.2v6.6c0,0.2,0,0.2,0.2,0.2s0.2-0.2,0.4-0.2l1-1c0.6,0.6,1.2,1.2,2,1.2c1.4,0,3-1.4,3-3.4
		c0-2.2-1-4.6-2.2-6.8c-1.4-2.2-2.2-4.2-2.2-5.6c0-1,0.2-1.8,0.8-1.8s1.2,0.6,1.6,1.8c0.6,1.4,0.8,2.6,1,3.6c0,0.2,0.2,0.4,0.2,0.4
		c0.2,0,0.2-0.2,0.2-0.2V560z M-113.1,553c-0.8,0-1.2,0.8-1.2,1.8c0,0.8,0.6,1.8,1.2,1.8c0.6,0,1.2-1,1.2-1.8
		C-111.9,553.8-112.5,553-113.1,553 M-114.3,577.1c0,0.2,0,0.2,0,0.4l-1,1.2l-0.2,0.2c0,0.2,0.2,0.2,0.2,0.2h4.6
		c0.2,0,0.2,0,0.2-0.2c0,0,0-0.2-0.2-0.2l-1-1.2c0,0,0-0.2,0-0.4v-17.3c0-0.2,0-0.2-0.2-0.2h-3.4c-0.2,0-0.2,0-0.2,0.2
		c0,0,0,0.2,0.2,0.2l1,1l0.2,0.2v15.9H-114.3z M-120.3,575.4c0,1-0.6,2-1.4,2c-0.8,0-1.2-0.8-1.2-4.8c0-3.6,0.6-4.8,2.4-6.4l0,0v9.2
		H-120.3z M-117.9,564c0-3.6-2.2-4.4-3.4-4.4c-2,0-4,2.4-4,2.8c0,0.2,0,0.2,0.2,0.2c0.2,0,0.2,0,0.2-0.2c0.6-0.6,2-1.4,3-1.4
		c1.2,0,1.4,0.4,1.4,2c0,1.4,0,1.8-0.6,2.2c-3.8,3-4.4,4-4.4,8c0,4.8,1.6,5.6,3,5.6c1,0,1.8-0.6,2.4-1.4c0.4,0.6,1,1.4,2,1.4
		c0.8,0,1.6-1,1.8-2c0-0.2,0-0.2-0.2-0.2c0,0-0.2,0-0.2,0.2c-0.2,0.4-0.6,0.6-1,0.6s-0.4-0.4-0.4-0.8V564H-117.9z M-127.5,553.2
		c0-0.2,0-0.4-0.2-0.4c-0.2,0-0.4,0.2-0.8,0.4c-0.4,0.4-0.6,0.6-0.8,0.6s-0.4-0.2-0.6-0.2c-0.6-0.4-1.2-0.8-2-0.8
		c-1.8,0-3.2,1-3.2,4.4c0,2.6,0.6,5.2,2.6,9c2,4.2,3,6.6,3,9c0,1-0.4,1.8-1,1.8c-2,0-3.2-4.4-3.8-7.2c0-0.2-0.2-0.2-0.2-0.2
		c-0.2,0-0.2,0.2-0.2,0.2v8.8c0,0.2,0,0.2,0.2,0.2c0.2,0,0.2-0.2,0.4-0.2c0.6-0.6,1-0.8,1.2-0.8s0.4,0.2,0.6,0.4
		c0.4,0.2,1,0.6,2,0.6c1.2,0,3.2-1.2,3.2-4.8c0-2.8-0.2-3.8-2.6-9c-2.6-5.4-3-7.2-3-8.8c0-0.8,0-1.6,1-1.6c1.6,0,3.2,4.4,3.8,7.2
		c0,0.2,0.2,0.2,0.2,0.2c0.2,0,0.2,0,0.2-0.2C-127.5,561.8-127.5,553.2-127.5,553.2z M-142.4,575.4c-0.8,0-1.2,0.8-1.2,1.8
		c0,0.8,0.4,1.8,1.2,1.8c1,0,1.2-0.8,1.2-1.8C-141.2,576.2-141.6,575.4-142.4,575.4 M-146,553.2c0-0.2,0-0.2-0.2-0.2h-3.4
		c-0.2,0-0.2,0-0.2,0.2c0,0,0,0.2,0.2,0.2l1,1l0.2,0.2v22.5c0,0.2,0,0.2,0,0.4l-1,1.2l-0.2,0.2c0,0.2,0.2,0.2,0.2,0.2h4.6
		c0.2,0,0.2,0,0.2-0.2c0,0,0-0.2-0.2-0.2l-1-1.2c0,0,0-0.2,0-0.4v-23.9H-146z M-154.2,575.4c0,1-0.6,2-1.4,2s-1.2-0.8-1.2-4.8
		c0-3.6,0.6-4.8,2.4-6.4l0,0v9.2H-154.2z M-151.8,564c0-3.6-2.2-4.4-3.4-4.4c-2,0-4,2.4-4,2.8c0,0.2,0,0.2,0.2,0.2s0.2,0,0.2-0.2
		c0.6-0.6,2-1.4,3-1.4c1.2,0,1.4,0.4,1.4,2c0,1.4,0,1.8-0.6,2.2c-3.8,3-4.4,4-4.4,8c0,4.8,1.6,5.6,3,5.6c1,0,1.8-0.6,2.4-1.4
		c0.4,0.6,1,1.4,2,1.4c0.8,0,1.6-1,1.8-2c0-0.2,0-0.2-0.2-0.2c0,0-0.2,0-0.2,0.2c-0.2,0.4-0.6,0.6-1,0.6c-0.4,0-0.4-0.4-0.4-0.8V564
		H-151.8z M-167.5,559.8c0-0.2,0-0.2-0.2-0.2h-3.2c-0.2,0-0.2,0-0.2,0.2c0,0,0,0.2,0.2,0.2l1,1l0.2,0.2v15.7c0,0.2,0,0.2,0,0.4
		l-1.2,1.2c-0.2,0-0.2,0.2-0.2,0.2c0,0.2,0,0.2,0.2,0.2h4.6c0.2,0,0.2,0,0.2-0.2c0,0,0-0.2-0.2-0.2l-1-1.2c0,0,0-0.2,0-0.4V564
		c0-1.8,0.8-3,1.8-3c0.8,0,1.2,0.6,1.2,2v13.9c0,0.2,0,0.2,0,0.4l-1,1.2l-0.2,0.2c0,0.2,0,0.2,0.2,0.2h4.6c0.2,0,0.2,0,0.2-0.2
		c0,0,0-0.2-0.2-0.2l-1-1.2c0,0,0-0.2,0-0.4V563c0-2.4-1.2-3.6-2.8-3.6c-1.2,0-1.8,0.6-2.4,1.2l0,0v-0.8H-167.5z M-176.7,577.5
		c-1,0-1.4-1.2-1.4-9c0-6,0.4-7.2,1.4-7.2s1.4,1.2,1.4,7.2C-175.3,576.2-175.7,577.5-176.7,577.5 M-176.7,559.6c-2.2,0-4,2-4,8.8
		c0,8.6,1.8,10.4,4,10.4c2.2,0,4.2-1.8,4.2-10.4C-172.5,561.6-174.3,559.6-176.7,559.6 M-184.8,553c-0.8,0-1.2,0.8-1.2,1.8
		c0,0.8,0.6,1.8,1.2,1.8s1.2-1,1.2-1.8C-183.6,553.8-184,553-184.8,553 M-186,577.1c0,0.2,0,0.2,0,0.4l-1,1l-0.2,0.2
		c0,0.2,0.2,0.2,0.2,0.2h4.6c0.2,0,0.2,0,0.2-0.2c0,0,0-0.2-0.2-0.2l-1-1.2c0,0,0-0.2,0-0.4v-17.3c0-0.2,0-0.2-0.2-0.2h-3.4
		c-0.2,0-0.2,0-0.2,0.2c0,0,0,0.2,0.2,0.2l1,1l0.2,0.2v16.1H-186z M-191.6,574.6c0,1.6-0.8,2.8-1.6,2.8s-1.2-0.8-1.2-9.2
		c0-6.4,0.4-7.2,1.2-7.2c0.8,0,1.6,1,1.6,3.2V574.6z M-189.2,559.8C-189.2,559.6-189.2,559.6-189.2,559.8c-0.2-0.2-0.4-0.2-0.6,0
		l-1.6,1.2l0,0c-0.6-0.6-1.4-1.4-2.4-1.4c-1.6,0-3.2,0.8-3.2,8.6c0,9.8,1.6,10.6,3.2,10.6c1.2,0,1.8-0.6,2.4-1.4l0,0
		c0,3.4-0.8,4.4-2,4.4c-1.2,0-2-0.6-2.8-1.6c-0.2-0.2-0.2-0.2-0.4-0.2s-0.2,0.2-0.2,0.2c0,0.6,1,3,3.6,3c2.4,0,4-1.4,4-8.6V559.8z
		 M-204.2,567.4V564c0-1.8,0.4-2.8,1.2-2.8s1.4,1,1.4,2.8v3.4H-204.2z M-204.2,568.6h4.6c0.2,0,0.4-0.2,0.4-0.4V566
		c0-5-1.8-6.6-3.8-6.6c-2.4,0-4,3.2-4,8.4c0,7.8,1.4,10.8,4.4,10.8c1.6,0,2.8-1.4,3.2-3c0-0.2,0-0.2-0.2-0.2s-0.2,0-0.2,0.2
		c-0.8,1-1.2,1.6-2.4,1.6c-1.6,0-2.2-1.6-2.2-6v-2.6H-204.2z M-215.1,554.6h0.6c1.6,0,2.4,1.2,2.4,4.6c0,4.2-0.6,5.4-2.4,5.4h-0.6
		V554.6z M-215.1,566.6h0.6c1.2,0,2.2,1.2,2.2,2.6v7.4c0,1.2,0.6,2.2,2.2,2.2h1.8c0.2,0,0.4,0,0.4-0.2c0-0.2-0.2-0.2-0.2-0.4
		l-1.2-1.2c-0.2-0.2-0.4-0.4-0.4-0.6v-7.2c0-2-1-3.2-2.2-3.8c1.2-0.8,2.6-2.4,2.6-6.2c0-4.4-1.8-6.4-5.4-6.4h-4.4
		c-0.2,0-0.2,0.2-0.2,0.2c0,0.2,0.2,0.2,0.2,0.4l1,1c0.2,0.2,0.4,0.6,0.4,1v21.1c0,0.4,0,0.8-0.4,1l-1,1c0,0.2-0.2,0.2-0.2,0.4
		c0,0.2,0,0.2,0.2,0.2h5.4c0.2,0,0.2-0.2,0.2-0.2c0-0.2-0.2-0.2-0.2-0.4l-1-1c-0.2-0.2-0.4-0.6-0.4-1V566.6z"/>
</g>
</svg>
